<mxfile host="app.diagrams.net" modified="2024-02-01T22:45:07.269Z" agent="Mozilla/5.0 (Windows NT 10.0; Win64; x64; rv:122.0) Gecko/20100101 Firefox/122.0" etag="1VCr5JYzkG-c5trKx3Mm" version="23.1.1" type="github">
  <diagram name="Page-1" id="90a13364-a465-7bf4-72fc-28e22215d7a0">
    <mxGraphModel dx="819" dy="431" grid="1" gridSize="10" guides="1" tooltips="1" connect="1" arrows="1" fold="1" page="1" pageScale="1.5" pageWidth="1169" pageHeight="826" background="none" math="0" shadow="0">
      <root>
        <mxCell id="0" style=";html=1;" />
        <mxCell id="1" style=";html=1;" parent="0" />
        <mxCell id="3a17f1ce550125da-10" value="DUT" style="whiteSpace=wrap;html=1;shadow=1;fontSize=18;fillColor=#f5f5f5;strokeColor=#666666;" parent="1" vertex="1">
          <mxGeometry x="799.5" y="774" width="145" height="120" as="geometry" />
        </mxCell>
        <mxCell id="3a17f1ce550125da-18" style="edgeStyle=elbowEdgeStyle;rounded=0;html=1;startArrow=none;startFill=0;jettySize=auto;orthogonalLoop=1;fontSize=18;elbow=vertical;" parent="1" source="3a17f1ce550125da-11" target="3a17f1ce550125da-10" edge="1">
          <mxGeometry relative="1" as="geometry" />
        </mxCell>
        <mxCell id="3a17f1ce550125da-11" value="DC Power Supplies" style="whiteSpace=wrap;html=1;shadow=1;fontSize=18;fillColor=#f5f5f5;strokeColor=#666666;" parent="1" vertex="1">
          <mxGeometry x="597" y="804" width="120" height="60" as="geometry" />
        </mxCell>
        <mxCell id="CMGqhZBOSsRHSaUzrzAc-2" value="Contador BCD&lt;br&gt;4 bits" style="whiteSpace=wrap;html=1;shadow=0;fontSize=18;fillColor=#f5f5f5;strokeColor=#666666;points=[[0,0,0,0,0],[0,0.25,0,0,0],[0,0.5,0,0,0],[0,0.75,0,0,0],[0,1,0,0,0],[0.13,0,0,0,0],[0.25,0,0,0,0],[0.25,1,0,0,0],[0.5,0,0,0,0],[0.5,1,0,0,0],[0.63,0,0,0,0],[0.75,0,0,0,0],[0.75,1,0,0,0],[0.87,0,0,0,0],[1,0,0,0,0],[1,0.25,0,0,0],[1,0.5,0,0,0],[1,0.75,0,0,0],[1,1,0,0,0]];" parent="1" vertex="1">
          <mxGeometry x="1360" y="360" width="220" height="90" as="geometry" />
        </mxCell>
        <mxCell id="CMGqhZBOSsRHSaUzrzAc-4" value="Comparador" style="whiteSpace=wrap;html=1;shadow=1;fontSize=18;fillColor=#f5f5f5;strokeColor=#666666;direction=west;container=0;points=[[0,0,0,0,0],[0,0.25,0,0,0],[0,0.5,0,0,0],[0,0.75,0,0,0],[0,1,0,0,0],[0.12,0,0,0,0],[0.12,1,0,0,0],[0.25,0,0,0,0],[0.25,1,0,0,0],[0.38,0,0,0,0],[0.5,0,0,0,0],[0.5,1,0,0,0],[0.62,0,0,0,0],[0.62,1,0,0,0],[0.75,0,0,0,0],[0.75,1,0,0,0],[1,0,0,0,0],[1,0.25,0,0,0],[1,0.5,0,0,0],[1,0.75,0,0,0],[1,1,0,0,0]];" parent="1" vertex="1">
          <mxGeometry x="1250" y="518.5" width="170" height="71" as="geometry" />
        </mxCell>
        <mxCell id="BS35G2VT3MpOAo61DK2G-1" value="clk" style="text;strokeColor=none;align=center;fillColor=none;html=1;verticalAlign=middle;whiteSpace=wrap;rounded=0;" vertex="1" parent="1">
          <mxGeometry x="1360" y="350" width="60" height="30" as="geometry" />
        </mxCell>
        <mxCell id="BS35G2VT3MpOAo61DK2G-6" value="srst" style="whiteSpace=wrap;html=1;shadow=0;fontSize=15;fillColor=#f5f5f5;strokeColor=#666666;align=center;rotation=90;" vertex="1" parent="1">
          <mxGeometry x="1350" y="395" width="40" height="20" as="geometry" />
        </mxCell>
        <mxCell id="BS35G2VT3MpOAo61DK2G-14" value="ena" style="whiteSpace=wrap;html=1;shadow=0;fontSize=15;fillColor=#f5f5f5;strokeColor=#666666;align=center;rotation=0;" vertex="1" parent="1">
          <mxGeometry x="1480" y="360" width="40" height="20" as="geometry" />
        </mxCell>
        <mxCell id="BS35G2VT3MpOAo61DK2G-16" value="rst" style="whiteSpace=wrap;html=1;shadow=0;fontSize=15;fillColor=#f5f5f5;strokeColor=#666666;align=center;rotation=0;" vertex="1" parent="1">
          <mxGeometry x="1530" y="360" width="40" height="20" as="geometry" />
        </mxCell>
        <mxCell id="BS35G2VT3MpOAo61DK2G-17" value="q" style="whiteSpace=wrap;html=1;shadow=0;fontSize=15;fillColor=#f5f5f5;strokeColor=#666666;align=center;rotation=0;" vertex="1" parent="1">
          <mxGeometry x="1450" y="430" width="40" height="20" as="geometry" />
        </mxCell>
        <mxCell id="BS35G2VT3MpOAo61DK2G-18" value="a" style="whiteSpace=wrap;html=1;shadow=0;fontSize=15;fillColor=#f5f5f5;strokeColor=#666666;align=center;rotation=0;" vertex="1" parent="1">
          <mxGeometry x="1260" y="569.5" width="40" height="20" as="geometry" />
        </mxCell>
        <mxCell id="BS35G2VT3MpOAo61DK2G-19" value="b" style="whiteSpace=wrap;html=1;shadow=0;fontSize=15;fillColor=#f5f5f5;strokeColor=#666666;align=center;rotation=0;" vertex="1" parent="1">
          <mxGeometry x="1340" y="569.5" width="40" height="20" as="geometry" />
        </mxCell>
        <mxCell id="BS35G2VT3MpOAo61DK2G-20" value="q0" style="whiteSpace=wrap;html=1;shadow=0;fontSize=15;fillColor=#f5f5f5;strokeColor=#666666;align=center;rotation=0;" vertex="1" parent="1">
          <mxGeometry x="1270" y="518.5" width="40" height="20" as="geometry" />
        </mxCell>
        <mxCell id="BS35G2VT3MpOAo61DK2G-21" value="q1" style="whiteSpace=wrap;html=1;shadow=0;fontSize=15;fillColor=#f5f5f5;strokeColor=#666666;align=center;rotation=0;" vertex="1" parent="1">
          <mxGeometry x="1315" y="518.5" width="40" height="20" as="geometry" />
        </mxCell>
        <mxCell id="BS35G2VT3MpOAo61DK2G-22" value="q2" style="whiteSpace=wrap;html=1;shadow=0;fontSize=15;fillColor=#f5f5f5;strokeColor=#666666;align=center;rotation=0;" vertex="1" parent="1">
          <mxGeometry x="1360" y="518.5" width="40" height="20" as="geometry" />
        </mxCell>
      </root>
    </mxGraphModel>
  </diagram>
</mxfile>
